<mxfile host="Electron" modified="2024-10-05T07:50:16.349Z" agent="Mozilla/5.0 (Windows NT 10.0; Win64; x64) AppleWebKit/537.36 (KHTML, like Gecko) draw.io/22.1.16 Chrome/120.0.6099.109 Electron/28.1.0 Safari/537.36" etag="uxX6eCZ3pmUxlCKlRQKf" version="22.1.16" type="device">
  <diagram name="Page-1" id="9kOwbwHMHhI9ucWvgaM6">
    <mxGraphModel dx="2323" dy="1831" grid="1" gridSize="10" guides="1" tooltips="1" connect="1" arrows="1" fold="1" page="1" pageScale="1" pageWidth="850" pageHeight="1100" math="0" shadow="0">
      <root>
        <mxCell id="0" />
        <mxCell id="1" parent="0" />
        <mxCell id="wrAC1V8LG0lOM_PLB3FL-1" value="Products" style="rounded=1;whiteSpace=wrap;html=1;" vertex="1" parent="1">
          <mxGeometry x="290" y="220" width="120" height="60" as="geometry" />
        </mxCell>
        <mxCell id="wrAC1V8LG0lOM_PLB3FL-3" value="" style="endArrow=none;html=1;rounded=0;entryX=0;entryY=0.5;entryDx=0;entryDy=0;exitX=1;exitY=0.5;exitDx=0;exitDy=0;" edge="1" parent="1" source="wrAC1V8LG0lOM_PLB3FL-4" target="wrAC1V8LG0lOM_PLB3FL-1">
          <mxGeometry width="50" height="50" relative="1" as="geometry">
            <mxPoint x="350" y="130" as="sourcePoint" />
            <mxPoint x="450" y="300" as="targetPoint" />
          </mxGeometry>
        </mxCell>
        <mxCell id="wrAC1V8LG0lOM_PLB3FL-4" value="TenSP" style="ellipse;whiteSpace=wrap;html=1;" vertex="1" parent="1">
          <mxGeometry x="40" y="170" width="120" height="40" as="geometry" />
        </mxCell>
        <mxCell id="wrAC1V8LG0lOM_PLB3FL-5" value="" style="endArrow=none;html=1;rounded=0;exitX=1;exitY=0.5;exitDx=0;exitDy=0;entryX=0;entryY=0.5;entryDx=0;entryDy=0;" edge="1" parent="1" source="wrAC1V8LG0lOM_PLB3FL-6" target="wrAC1V8LG0lOM_PLB3FL-1">
          <mxGeometry width="50" height="50" relative="1" as="geometry">
            <mxPoint x="230" y="110" as="sourcePoint" />
            <mxPoint x="360" y="230" as="targetPoint" />
          </mxGeometry>
        </mxCell>
        <mxCell id="wrAC1V8LG0lOM_PLB3FL-6" value="MaSP" style="ellipse;whiteSpace=wrap;html=1;fontStyle=5" vertex="1" parent="1">
          <mxGeometry x="40" y="220" width="120" height="40" as="geometry" />
        </mxCell>
        <mxCell id="wrAC1V8LG0lOM_PLB3FL-7" value="GiaSP" style="ellipse;whiteSpace=wrap;html=1;" vertex="1" parent="1">
          <mxGeometry x="40" y="120" width="120" height="40" as="geometry" />
        </mxCell>
        <mxCell id="wrAC1V8LG0lOM_PLB3FL-8" value="" style="endArrow=none;html=1;rounded=0;entryX=1;entryY=0.5;entryDx=0;entryDy=0;" edge="1" parent="1" target="wrAC1V8LG0lOM_PLB3FL-7">
          <mxGeometry width="50" height="50" relative="1" as="geometry">
            <mxPoint x="290" y="250" as="sourcePoint" />
            <mxPoint x="380" y="110" as="targetPoint" />
          </mxGeometry>
        </mxCell>
        <mxCell id="wrAC1V8LG0lOM_PLB3FL-9" value="AnhSP" style="ellipse;whiteSpace=wrap;html=1;" vertex="1" parent="1">
          <mxGeometry x="140" y="90" width="120" height="40" as="geometry" />
        </mxCell>
        <mxCell id="wrAC1V8LG0lOM_PLB3FL-10" value="" style="endArrow=none;html=1;rounded=0;entryX=0.5;entryY=1;entryDx=0;entryDy=0;exitX=0.5;exitY=0;exitDx=0;exitDy=0;" edge="1" parent="1" source="wrAC1V8LG0lOM_PLB3FL-1" target="wrAC1V8LG0lOM_PLB3FL-9">
          <mxGeometry width="50" height="50" relative="1" as="geometry">
            <mxPoint x="300" y="260" as="sourcePoint" />
            <mxPoint x="170" y="170" as="targetPoint" />
          </mxGeometry>
        </mxCell>
        <mxCell id="wrAC1V8LG0lOM_PLB3FL-11" value="" style="endArrow=none;html=1;rounded=0;exitX=0.5;exitY=0;exitDx=0;exitDy=0;entryX=0.5;entryY=1;entryDx=0;entryDy=0;" edge="1" parent="1" source="wrAC1V8LG0lOM_PLB3FL-1" target="wrAC1V8LG0lOM_PLB3FL-12">
          <mxGeometry width="50" height="50" relative="1" as="geometry">
            <mxPoint x="310" y="270" as="sourcePoint" />
            <mxPoint x="290" y="150" as="targetPoint" />
          </mxGeometry>
        </mxCell>
        <mxCell id="wrAC1V8LG0lOM_PLB3FL-12" value="LoaiSP" style="ellipse;whiteSpace=wrap;html=1;" vertex="1" parent="1">
          <mxGeometry x="290" y="90" width="120" height="40" as="geometry" />
        </mxCell>
        <mxCell id="wrAC1V8LG0lOM_PLB3FL-13" value="LoaiSP" style="rounded=1;whiteSpace=wrap;html=1;" vertex="1" parent="1">
          <mxGeometry x="-25" y="420" width="120" height="60" as="geometry" />
        </mxCell>
        <mxCell id="wrAC1V8LG0lOM_PLB3FL-20" value="MaLoai" style="ellipse;whiteSpace=wrap;html=1;" vertex="1" parent="1">
          <mxGeometry x="-100" y="330" width="120" height="40" as="geometry" />
        </mxCell>
        <mxCell id="wrAC1V8LG0lOM_PLB3FL-21" value="" style="endArrow=none;html=1;rounded=0;entryX=0.5;entryY=1;entryDx=0;entryDy=0;exitX=0.5;exitY=0;exitDx=0;exitDy=0;" edge="1" parent="1" source="wrAC1V8LG0lOM_PLB3FL-13" target="wrAC1V8LG0lOM_PLB3FL-20">
          <mxGeometry width="50" height="50" relative="1" as="geometry">
            <mxPoint x="60" y="500" as="sourcePoint" />
            <mxPoint x="-70" y="410" as="targetPoint" />
          </mxGeometry>
        </mxCell>
        <mxCell id="wrAC1V8LG0lOM_PLB3FL-22" value="" style="endArrow=none;html=1;rounded=0;exitX=0.5;exitY=0;exitDx=0;exitDy=0;entryX=0.5;entryY=1;entryDx=0;entryDy=0;" edge="1" parent="1" source="wrAC1V8LG0lOM_PLB3FL-13" target="wrAC1V8LG0lOM_PLB3FL-23">
          <mxGeometry width="50" height="50" relative="1" as="geometry">
            <mxPoint x="70" y="510" as="sourcePoint" />
            <mxPoint x="50" y="390" as="targetPoint" />
          </mxGeometry>
        </mxCell>
        <mxCell id="wrAC1V8LG0lOM_PLB3FL-23" value="Loai" style="ellipse;whiteSpace=wrap;html=1;" vertex="1" parent="1">
          <mxGeometry x="50" y="330" width="120" height="40" as="geometry" />
        </mxCell>
        <mxCell id="wrAC1V8LG0lOM_PLB3FL-25" value="ChiTietSP" style="rounded=1;whiteSpace=wrap;html=1;" vertex="1" parent="1">
          <mxGeometry x="885" y="-90" width="120" height="60" as="geometry" />
        </mxCell>
        <mxCell id="wrAC1V8LG0lOM_PLB3FL-26" value="" style="endArrow=none;html=1;rounded=0;entryX=0;entryY=0.5;entryDx=0;entryDy=0;exitX=1;exitY=0.5;exitDx=0;exitDy=0;" edge="1" parent="1" source="wrAC1V8LG0lOM_PLB3FL-27" target="wrAC1V8LG0lOM_PLB3FL-25">
          <mxGeometry width="50" height="50" relative="1" as="geometry">
            <mxPoint x="945" y="-180" as="sourcePoint" />
            <mxPoint x="1045" y="-10" as="targetPoint" />
          </mxGeometry>
        </mxCell>
        <mxCell id="wrAC1V8LG0lOM_PLB3FL-27" value="TenSP" style="ellipse;whiteSpace=wrap;html=1;" vertex="1" parent="1">
          <mxGeometry x="670" y="-150" width="120" height="40" as="geometry" />
        </mxCell>
        <mxCell id="wrAC1V8LG0lOM_PLB3FL-28" value="" style="endArrow=none;html=1;rounded=0;exitX=1;exitY=0.5;exitDx=0;exitDy=0;entryX=0;entryY=0.5;entryDx=0;entryDy=0;" edge="1" parent="1" source="wrAC1V8LG0lOM_PLB3FL-29" target="wrAC1V8LG0lOM_PLB3FL-25">
          <mxGeometry width="50" height="50" relative="1" as="geometry">
            <mxPoint x="825" y="-200" as="sourcePoint" />
            <mxPoint x="955" y="-80" as="targetPoint" />
          </mxGeometry>
        </mxCell>
        <mxCell id="wrAC1V8LG0lOM_PLB3FL-29" value="MaSP" style="ellipse;whiteSpace=wrap;html=1;" vertex="1" parent="1">
          <mxGeometry x="670" y="-100" width="120" height="40" as="geometry" />
        </mxCell>
        <mxCell id="wrAC1V8LG0lOM_PLB3FL-30" value="KichThuoc" style="ellipse;whiteSpace=wrap;html=1;" vertex="1" parent="1">
          <mxGeometry x="670" y="-210" width="120" height="40" as="geometry" />
        </mxCell>
        <mxCell id="wrAC1V8LG0lOM_PLB3FL-31" value="" style="endArrow=none;html=1;rounded=0;entryX=0.5;entryY=1;entryDx=0;entryDy=0;exitX=0.5;exitY=0;exitDx=0;exitDy=0;" edge="1" parent="1" target="wrAC1V8LG0lOM_PLB3FL-30" source="wrAC1V8LG0lOM_PLB3FL-25">
          <mxGeometry width="50" height="50" relative="1" as="geometry">
            <mxPoint x="885" y="-60" as="sourcePoint" />
            <mxPoint x="975" y="-200" as="targetPoint" />
          </mxGeometry>
        </mxCell>
        <mxCell id="wrAC1V8LG0lOM_PLB3FL-32" value="MauSac" style="ellipse;whiteSpace=wrap;html=1;" vertex="1" parent="1">
          <mxGeometry x="800" y="-210" width="120" height="40" as="geometry" />
        </mxCell>
        <mxCell id="wrAC1V8LG0lOM_PLB3FL-33" value="" style="endArrow=none;html=1;rounded=0;entryX=0.5;entryY=1;entryDx=0;entryDy=0;exitX=0.5;exitY=0;exitDx=0;exitDy=0;" edge="1" parent="1" source="wrAC1V8LG0lOM_PLB3FL-25" target="wrAC1V8LG0lOM_PLB3FL-32">
          <mxGeometry width="50" height="50" relative="1" as="geometry">
            <mxPoint x="895" y="-50" as="sourcePoint" />
            <mxPoint x="765" y="-140" as="targetPoint" />
          </mxGeometry>
        </mxCell>
        <mxCell id="wrAC1V8LG0lOM_PLB3FL-34" value="" style="endArrow=none;html=1;rounded=0;exitX=0.5;exitY=0;exitDx=0;exitDy=0;entryX=0.5;entryY=1;entryDx=0;entryDy=0;" edge="1" parent="1" source="wrAC1V8LG0lOM_PLB3FL-25" target="wrAC1V8LG0lOM_PLB3FL-35">
          <mxGeometry width="50" height="50" relative="1" as="geometry">
            <mxPoint x="905" y="-40" as="sourcePoint" />
            <mxPoint x="885" y="-160" as="targetPoint" />
          </mxGeometry>
        </mxCell>
        <mxCell id="wrAC1V8LG0lOM_PLB3FL-35" value="AnhSP" style="ellipse;whiteSpace=wrap;html=1;" vertex="1" parent="1">
          <mxGeometry x="930" y="-210" width="120" height="40" as="geometry" />
        </mxCell>
        <mxCell id="wrAC1V8LG0lOM_PLB3FL-36" value="MaChiTietSP" style="ellipse;whiteSpace=wrap;html=1;fontStyle=5" vertex="1" parent="1">
          <mxGeometry x="670" y="-50" width="120" height="40" as="geometry" />
        </mxCell>
        <mxCell id="wrAC1V8LG0lOM_PLB3FL-37" value="" style="endArrow=none;html=1;rounded=0;exitX=1;exitY=0.5;exitDx=0;exitDy=0;entryX=0;entryY=0.5;entryDx=0;entryDy=0;" edge="1" parent="1" source="wrAC1V8LG0lOM_PLB3FL-36" target="wrAC1V8LG0lOM_PLB3FL-25">
          <mxGeometry width="50" height="50" relative="1" as="geometry">
            <mxPoint x="765" as="sourcePoint" />
            <mxPoint x="885" y="-60" as="targetPoint" />
          </mxGeometry>
        </mxCell>
        <mxCell id="wrAC1V8LG0lOM_PLB3FL-38" value="" style="endArrow=none;html=1;rounded=0;entryX=0.5;entryY=0;entryDx=0;entryDy=0;exitX=0.5;exitY=1;exitDx=0;exitDy=0;" edge="1" parent="1" source="wrAC1V8LG0lOM_PLB3FL-39" target="wrAC1V8LG0lOM_PLB3FL-25">
          <mxGeometry width="50" height="50" relative="1" as="geometry">
            <mxPoint x="925" y="-180" as="sourcePoint" />
            <mxPoint x="905" y="-40" as="targetPoint" />
          </mxGeometry>
        </mxCell>
        <mxCell id="wrAC1V8LG0lOM_PLB3FL-39" value="DonGiaBan" style="ellipse;whiteSpace=wrap;html=1;" vertex="1" parent="1">
          <mxGeometry x="1060" y="-210" width="120" height="40" as="geometry" />
        </mxCell>
        <mxCell id="wrAC1V8LG0lOM_PLB3FL-40" value="GiamGia" style="ellipse;whiteSpace=wrap;html=1;" vertex="1" parent="1">
          <mxGeometry x="1115" y="-140" width="120" height="40" as="geometry" />
        </mxCell>
        <mxCell id="wrAC1V8LG0lOM_PLB3FL-41" value="" style="endArrow=none;html=1;rounded=0;entryX=1;entryY=0.5;entryDx=0;entryDy=0;exitX=0;exitY=0.5;exitDx=0;exitDy=0;" edge="1" parent="1" source="wrAC1V8LG0lOM_PLB3FL-40" target="wrAC1V8LG0lOM_PLB3FL-25">
          <mxGeometry width="50" height="50" relative="1" as="geometry">
            <mxPoint x="955" y="-170" as="sourcePoint" />
            <mxPoint x="955" y="-80" as="targetPoint" />
          </mxGeometry>
        </mxCell>
        <mxCell id="wrAC1V8LG0lOM_PLB3FL-42" value="" style="endArrow=none;html=1;rounded=0;entryX=1;entryY=0.5;entryDx=0;entryDy=0;exitX=0;exitY=0.5;exitDx=0;exitDy=0;" edge="1" parent="1" source="wrAC1V8LG0lOM_PLB3FL-43" target="wrAC1V8LG0lOM_PLB3FL-25">
          <mxGeometry width="50" height="50" relative="1" as="geometry">
            <mxPoint x="1105" y="-140" as="sourcePoint" />
            <mxPoint x="965" y="-70" as="targetPoint" />
          </mxGeometry>
        </mxCell>
        <mxCell id="wrAC1V8LG0lOM_PLB3FL-43" value="SoLuongTon" style="ellipse;whiteSpace=wrap;html=1;" vertex="1" parent="1">
          <mxGeometry x="1115" y="-90" width="120" height="40" as="geometry" />
        </mxCell>
        <mxCell id="wrAC1V8LG0lOM_PLB3FL-44" value="DanhGia" style="ellipse;whiteSpace=wrap;html=1;" vertex="1" parent="1">
          <mxGeometry x="1115" y="-40" width="120" height="40" as="geometry" />
        </mxCell>
        <mxCell id="wrAC1V8LG0lOM_PLB3FL-45" value="" style="endArrow=none;html=1;rounded=0;entryX=1;entryY=0.5;entryDx=0;entryDy=0;exitX=0;exitY=0.5;exitDx=0;exitDy=0;" edge="1" parent="1" source="wrAC1V8LG0lOM_PLB3FL-44" target="wrAC1V8LG0lOM_PLB3FL-25">
          <mxGeometry width="50" height="50" relative="1" as="geometry">
            <mxPoint x="1125" y="-140" as="sourcePoint" />
            <mxPoint x="955" y="-80" as="targetPoint" />
          </mxGeometry>
        </mxCell>
        <mxCell id="wrAC1V8LG0lOM_PLB3FL-46" value="" style="endArrow=none;html=1;rounded=0;entryX=1;entryY=0.5;entryDx=0;entryDy=0;exitX=0;exitY=0.5;exitDx=0;exitDy=0;" edge="1" parent="1" source="wrAC1V8LG0lOM_PLB3FL-47" target="wrAC1V8LG0lOM_PLB3FL-25">
          <mxGeometry width="50" height="50" relative="1" as="geometry">
            <mxPoint x="1135" y="-50" as="sourcePoint" />
            <mxPoint x="965" y="-70" as="targetPoint" />
          </mxGeometry>
        </mxCell>
        <mxCell id="wrAC1V8LG0lOM_PLB3FL-47" value="MoTa" style="ellipse;whiteSpace=wrap;html=1;" vertex="1" parent="1">
          <mxGeometry x="1115" y="10" width="120" height="40" as="geometry" />
        </mxCell>
        <mxCell id="wrAC1V8LG0lOM_PLB3FL-48" value="SoLuong" style="ellipse;whiteSpace=wrap;html=1;" vertex="1" parent="1">
          <mxGeometry x="425" y="90" width="120" height="40" as="geometry" />
        </mxCell>
        <mxCell id="wrAC1V8LG0lOM_PLB3FL-49" value="" style="endArrow=none;html=1;rounded=0;exitX=0.5;exitY=0;exitDx=0;exitDy=0;entryX=0.5;entryY=1;entryDx=0;entryDy=0;" edge="1" parent="1" source="wrAC1V8LG0lOM_PLB3FL-1" target="wrAC1V8LG0lOM_PLB3FL-48">
          <mxGeometry width="50" height="50" relative="1" as="geometry">
            <mxPoint x="360" y="230" as="sourcePoint" />
            <mxPoint x="360" y="140" as="targetPoint" />
          </mxGeometry>
        </mxCell>
        <mxCell id="wrAC1V8LG0lOM_PLB3FL-50" value="" style="endArrow=none;html=1;rounded=0;entryX=0;entryY=0.5;entryDx=0;entryDy=0;exitX=1;exitY=0.5;exitDx=0;exitDy=0;" edge="1" parent="1" source="wrAC1V8LG0lOM_PLB3FL-52" target="wrAC1V8LG0lOM_PLB3FL-1">
          <mxGeometry width="50" height="50" relative="1" as="geometry">
            <mxPoint x="180" y="270" as="sourcePoint" />
            <mxPoint x="300" y="260" as="targetPoint" />
          </mxGeometry>
        </mxCell>
        <mxCell id="wrAC1V8LG0lOM_PLB3FL-52" value="ID" style="ellipse;whiteSpace=wrap;html=1;" vertex="1" parent="1">
          <mxGeometry x="40" y="270" width="120" height="40" as="geometry" />
        </mxCell>
        <mxCell id="wrAC1V8LG0lOM_PLB3FL-53" value="" style="edgeStyle=entityRelationEdgeStyle;fontSize=12;html=1;endArrow=ERoneToMany;rounded=0;exitX=1;exitY=0.5;exitDx=0;exitDy=0;entryX=0;entryY=0.5;entryDx=0;entryDy=0;" edge="1" parent="1" source="wrAC1V8LG0lOM_PLB3FL-1" target="wrAC1V8LG0lOM_PLB3FL-54">
          <mxGeometry width="100" height="100" relative="1" as="geometry">
            <mxPoint x="690" y="270" as="sourcePoint" />
            <mxPoint x="570" y="220" as="targetPoint" />
          </mxGeometry>
        </mxCell>
        <mxCell id="wrAC1V8LG0lOM_PLB3FL-54" value="Có" style="shape=rhombus;perimeter=rhombusPerimeter;whiteSpace=wrap;html=1;align=center;" vertex="1" parent="1">
          <mxGeometry x="560" y="200" width="70" height="40" as="geometry" />
        </mxCell>
        <mxCell id="wrAC1V8LG0lOM_PLB3FL-55" value="" style="edgeStyle=entityRelationEdgeStyle;fontSize=12;html=1;endArrow=ERoneToMany;rounded=0;exitX=0.5;exitY=1;exitDx=0;exitDy=0;entryX=1;entryY=0.5;entryDx=0;entryDy=0;" edge="1" parent="1" source="wrAC1V8LG0lOM_PLB3FL-25" target="wrAC1V8LG0lOM_PLB3FL-54">
          <mxGeometry width="100" height="100" relative="1" as="geometry">
            <mxPoint x="690" y="270" as="sourcePoint" />
            <mxPoint x="790" y="170" as="targetPoint" />
          </mxGeometry>
        </mxCell>
        <mxCell id="wrAC1V8LG0lOM_PLB3FL-56" value="GioHang" style="rounded=1;whiteSpace=wrap;html=1;" vertex="1" parent="1">
          <mxGeometry x="740" y="430" width="120" height="60" as="geometry" />
        </mxCell>
        <mxCell id="wrAC1V8LG0lOM_PLB3FL-57" value="MaSP" style="ellipse;whiteSpace=wrap;html=1;fontStyle=0" vertex="1" parent="1">
          <mxGeometry x="930" y="540" width="120" height="40" as="geometry" />
        </mxCell>
        <mxCell id="wrAC1V8LG0lOM_PLB3FL-58" value="TenSP" style="ellipse;whiteSpace=wrap;html=1;" vertex="1" parent="1">
          <mxGeometry x="930" y="490" width="120" height="40" as="geometry" />
        </mxCell>
        <mxCell id="wrAC1V8LG0lOM_PLB3FL-59" value="AnhSP" style="ellipse;whiteSpace=wrap;html=1;" vertex="1" parent="1">
          <mxGeometry x="930" y="440" width="120" height="40" as="geometry" />
        </mxCell>
        <mxCell id="wrAC1V8LG0lOM_PLB3FL-60" value="GiaSP" style="ellipse;whiteSpace=wrap;html=1;" vertex="1" parent="1">
          <mxGeometry x="930" y="390" width="120" height="40" as="geometry" />
        </mxCell>
        <mxCell id="wrAC1V8LG0lOM_PLB3FL-61" value="SoLuong" style="ellipse;whiteSpace=wrap;html=1;" vertex="1" parent="1">
          <mxGeometry x="930" y="330" width="120" height="40" as="geometry" />
        </mxCell>
        <mxCell id="wrAC1V8LG0lOM_PLB3FL-62" value="TongTien" style="ellipse;whiteSpace=wrap;html=1;" vertex="1" parent="1">
          <mxGeometry x="770" y="330" width="120" height="40" as="geometry" />
        </mxCell>
        <mxCell id="wrAC1V8LG0lOM_PLB3FL-64" value="" style="endArrow=none;html=1;rounded=0;exitX=0.5;exitY=0;exitDx=0;exitDy=0;entryX=0;entryY=0.5;entryDx=0;entryDy=0;" edge="1" parent="1" source="wrAC1V8LG0lOM_PLB3FL-56" target="wrAC1V8LG0lOM_PLB3FL-61">
          <mxGeometry width="50" height="50" relative="1" as="geometry">
            <mxPoint x="560" y="400" as="sourcePoint" />
            <mxPoint x="910" y="350" as="targetPoint" />
          </mxGeometry>
        </mxCell>
        <mxCell id="wrAC1V8LG0lOM_PLB3FL-65" value="" style="endArrow=none;html=1;rounded=0;entryX=1;entryY=0.5;entryDx=0;entryDy=0;exitX=0;exitY=0.5;exitDx=0;exitDy=0;" edge="1" parent="1" source="wrAC1V8LG0lOM_PLB3FL-60" target="wrAC1V8LG0lOM_PLB3FL-56">
          <mxGeometry width="50" height="50" relative="1" as="geometry">
            <mxPoint x="570" y="410" as="sourcePoint" />
            <mxPoint x="620" y="360" as="targetPoint" />
          </mxGeometry>
        </mxCell>
        <mxCell id="wrAC1V8LG0lOM_PLB3FL-66" value="" style="endArrow=none;html=1;rounded=0;exitX=0;exitY=0.5;exitDx=0;exitDy=0;entryX=1;entryY=0.5;entryDx=0;entryDy=0;" edge="1" parent="1" source="wrAC1V8LG0lOM_PLB3FL-59" target="wrAC1V8LG0lOM_PLB3FL-56">
          <mxGeometry width="50" height="50" relative="1" as="geometry">
            <mxPoint x="580" y="420" as="sourcePoint" />
            <mxPoint x="940" y="470" as="targetPoint" />
          </mxGeometry>
        </mxCell>
        <mxCell id="wrAC1V8LG0lOM_PLB3FL-67" value="" style="endArrow=none;html=1;rounded=0;entryX=1;entryY=0.5;entryDx=0;entryDy=0;exitX=0;exitY=0.5;exitDx=0;exitDy=0;" edge="1" parent="1" source="wrAC1V8LG0lOM_PLB3FL-58" target="wrAC1V8LG0lOM_PLB3FL-56">
          <mxGeometry width="50" height="50" relative="1" as="geometry">
            <mxPoint x="590" y="430" as="sourcePoint" />
            <mxPoint x="640" y="380" as="targetPoint" />
          </mxGeometry>
        </mxCell>
        <mxCell id="wrAC1V8LG0lOM_PLB3FL-68" value="" style="endArrow=none;html=1;rounded=0;entryX=1;entryY=0.5;entryDx=0;entryDy=0;exitX=0;exitY=0.5;exitDx=0;exitDy=0;" edge="1" parent="1" source="wrAC1V8LG0lOM_PLB3FL-57" target="wrAC1V8LG0lOM_PLB3FL-56">
          <mxGeometry width="50" height="50" relative="1" as="geometry">
            <mxPoint x="900" y="550" as="sourcePoint" />
            <mxPoint x="650" y="390" as="targetPoint" />
          </mxGeometry>
        </mxCell>
        <mxCell id="wrAC1V8LG0lOM_PLB3FL-69" value="" style="endArrow=none;html=1;rounded=0;entryX=0.5;entryY=1;entryDx=0;entryDy=0;" edge="1" parent="1" target="wrAC1V8LG0lOM_PLB3FL-62">
          <mxGeometry width="50" height="50" relative="1" as="geometry">
            <mxPoint x="800" y="430" as="sourcePoint" />
            <mxPoint x="940" y="360" as="targetPoint" />
          </mxGeometry>
        </mxCell>
        <mxCell id="wrAC1V8LG0lOM_PLB3FL-70" value="TongTienToanGioHang" style="ellipse;whiteSpace=wrap;html=1;" vertex="1" parent="1">
          <mxGeometry x="610" y="330" width="140" height="40" as="geometry" />
        </mxCell>
        <mxCell id="wrAC1V8LG0lOM_PLB3FL-71" value="" style="endArrow=none;html=1;rounded=0;entryX=0.5;entryY=1;entryDx=0;entryDy=0;exitX=0.5;exitY=0;exitDx=0;exitDy=0;" edge="1" parent="1" source="wrAC1V8LG0lOM_PLB3FL-56" target="wrAC1V8LG0lOM_PLB3FL-70">
          <mxGeometry width="50" height="50" relative="1" as="geometry">
            <mxPoint x="810" y="440" as="sourcePoint" />
            <mxPoint x="840" y="380" as="targetPoint" />
          </mxGeometry>
        </mxCell>
        <mxCell id="wrAC1V8LG0lOM_PLB3FL-72" value="User" style="rounded=1;whiteSpace=wrap;html=1;" vertex="1" parent="1">
          <mxGeometry x="1365" y="490" width="120" height="60" as="geometry" />
        </mxCell>
        <mxCell id="wrAC1V8LG0lOM_PLB3FL-73" value="ID" style="ellipse;whiteSpace=wrap;html=1;fontStyle=0" vertex="1" parent="1">
          <mxGeometry x="1555" y="600" width="120" height="40" as="geometry" />
        </mxCell>
        <mxCell id="wrAC1V8LG0lOM_PLB3FL-74" value="Name" style="ellipse;whiteSpace=wrap;html=1;" vertex="1" parent="1">
          <mxGeometry x="1555" y="550" width="120" height="40" as="geometry" />
        </mxCell>
        <mxCell id="wrAC1V8LG0lOM_PLB3FL-75" value="DateofBirth" style="ellipse;whiteSpace=wrap;html=1;" vertex="1" parent="1">
          <mxGeometry x="1555" y="500" width="120" height="40" as="geometry" />
        </mxCell>
        <mxCell id="wrAC1V8LG0lOM_PLB3FL-76" value="Email" style="ellipse;whiteSpace=wrap;html=1;" vertex="1" parent="1">
          <mxGeometry x="1555" y="450" width="120" height="40" as="geometry" />
        </mxCell>
        <mxCell id="wrAC1V8LG0lOM_PLB3FL-77" value="Phone" style="ellipse;whiteSpace=wrap;html=1;" vertex="1" parent="1">
          <mxGeometry x="1555" y="390" width="120" height="40" as="geometry" />
        </mxCell>
        <mxCell id="wrAC1V8LG0lOM_PLB3FL-78" value="Username" style="ellipse;whiteSpace=wrap;html=1;" vertex="1" parent="1">
          <mxGeometry x="1395" y="390" width="120" height="40" as="geometry" />
        </mxCell>
        <mxCell id="wrAC1V8LG0lOM_PLB3FL-79" value="" style="endArrow=none;html=1;rounded=0;exitX=0.5;exitY=0;exitDx=0;exitDy=0;entryX=0;entryY=0.5;entryDx=0;entryDy=0;" edge="1" parent="1" source="wrAC1V8LG0lOM_PLB3FL-72" target="wrAC1V8LG0lOM_PLB3FL-77">
          <mxGeometry width="50" height="50" relative="1" as="geometry">
            <mxPoint x="1185" y="460" as="sourcePoint" />
            <mxPoint x="1535" y="410" as="targetPoint" />
          </mxGeometry>
        </mxCell>
        <mxCell id="wrAC1V8LG0lOM_PLB3FL-80" value="" style="endArrow=none;html=1;rounded=0;entryX=1;entryY=0.5;entryDx=0;entryDy=0;exitX=0;exitY=0.5;exitDx=0;exitDy=0;" edge="1" parent="1" source="wrAC1V8LG0lOM_PLB3FL-76" target="wrAC1V8LG0lOM_PLB3FL-72">
          <mxGeometry width="50" height="50" relative="1" as="geometry">
            <mxPoint x="1195" y="470" as="sourcePoint" />
            <mxPoint x="1245" y="420" as="targetPoint" />
          </mxGeometry>
        </mxCell>
        <mxCell id="wrAC1V8LG0lOM_PLB3FL-81" value="" style="endArrow=none;html=1;rounded=0;exitX=0;exitY=0.5;exitDx=0;exitDy=0;entryX=1;entryY=0.5;entryDx=0;entryDy=0;" edge="1" parent="1" source="wrAC1V8LG0lOM_PLB3FL-75" target="wrAC1V8LG0lOM_PLB3FL-72">
          <mxGeometry width="50" height="50" relative="1" as="geometry">
            <mxPoint x="1205" y="480" as="sourcePoint" />
            <mxPoint x="1565" y="530" as="targetPoint" />
          </mxGeometry>
        </mxCell>
        <mxCell id="wrAC1V8LG0lOM_PLB3FL-82" value="" style="endArrow=none;html=1;rounded=0;entryX=1;entryY=0.5;entryDx=0;entryDy=0;exitX=0;exitY=0.5;exitDx=0;exitDy=0;" edge="1" parent="1" source="wrAC1V8LG0lOM_PLB3FL-74" target="wrAC1V8LG0lOM_PLB3FL-72">
          <mxGeometry width="50" height="50" relative="1" as="geometry">
            <mxPoint x="1215" y="490" as="sourcePoint" />
            <mxPoint x="1265" y="440" as="targetPoint" />
          </mxGeometry>
        </mxCell>
        <mxCell id="wrAC1V8LG0lOM_PLB3FL-83" value="" style="endArrow=none;html=1;rounded=0;entryX=1;entryY=0.5;entryDx=0;entryDy=0;exitX=0;exitY=0.5;exitDx=0;exitDy=0;" edge="1" parent="1" source="wrAC1V8LG0lOM_PLB3FL-73" target="wrAC1V8LG0lOM_PLB3FL-72">
          <mxGeometry width="50" height="50" relative="1" as="geometry">
            <mxPoint x="1525" y="610" as="sourcePoint" />
            <mxPoint x="1275" y="450" as="targetPoint" />
          </mxGeometry>
        </mxCell>
        <mxCell id="wrAC1V8LG0lOM_PLB3FL-84" value="" style="endArrow=none;html=1;rounded=0;entryX=0.5;entryY=1;entryDx=0;entryDy=0;" edge="1" parent="1" target="wrAC1V8LG0lOM_PLB3FL-78">
          <mxGeometry width="50" height="50" relative="1" as="geometry">
            <mxPoint x="1425" y="490" as="sourcePoint" />
            <mxPoint x="1565" y="420" as="targetPoint" />
          </mxGeometry>
        </mxCell>
        <mxCell id="wrAC1V8LG0lOM_PLB3FL-85" value="Password" style="ellipse;whiteSpace=wrap;html=1;" vertex="1" parent="1">
          <mxGeometry x="1235" y="390" width="140" height="40" as="geometry" />
        </mxCell>
        <mxCell id="wrAC1V8LG0lOM_PLB3FL-86" value="" style="endArrow=none;html=1;rounded=0;entryX=0.5;entryY=1;entryDx=0;entryDy=0;exitX=0.5;exitY=0;exitDx=0;exitDy=0;" edge="1" parent="1" source="wrAC1V8LG0lOM_PLB3FL-72" target="wrAC1V8LG0lOM_PLB3FL-85">
          <mxGeometry width="50" height="50" relative="1" as="geometry">
            <mxPoint x="1435" y="500" as="sourcePoint" />
            <mxPoint x="1465" y="440" as="targetPoint" />
          </mxGeometry>
        </mxCell>
        <mxCell id="wrAC1V8LG0lOM_PLB3FL-88" value="Có" style="shape=rhombus;perimeter=rhombusPerimeter;whiteSpace=wrap;html=1;align=center;" vertex="1" parent="1">
          <mxGeometry x="210" y="400" width="70" height="40" as="geometry" />
        </mxCell>
        <mxCell id="wrAC1V8LG0lOM_PLB3FL-89" value="" style="edgeStyle=entityRelationEdgeStyle;fontSize=12;html=1;endArrow=ERoneToMany;rounded=0;exitX=0.5;exitY=1;exitDx=0;exitDy=0;entryX=1;entryY=0.5;entryDx=0;entryDy=0;" edge="1" parent="1" source="wrAC1V8LG0lOM_PLB3FL-1" target="wrAC1V8LG0lOM_PLB3FL-88">
          <mxGeometry width="100" height="100" relative="1" as="geometry">
            <mxPoint x="420" y="300" as="sourcePoint" />
            <mxPoint x="520" y="200" as="targetPoint" />
          </mxGeometry>
        </mxCell>
        <mxCell id="wrAC1V8LG0lOM_PLB3FL-90" value="" style="edgeStyle=entityRelationEdgeStyle;fontSize=12;html=1;endArrow=ERoneToMany;rounded=0;entryX=1;entryY=0.5;entryDx=0;entryDy=0;exitX=0;exitY=0.5;exitDx=0;exitDy=0;" edge="1" parent="1" source="wrAC1V8LG0lOM_PLB3FL-88" target="wrAC1V8LG0lOM_PLB3FL-13">
          <mxGeometry width="100" height="100" relative="1" as="geometry">
            <mxPoint x="420" y="300" as="sourcePoint" />
            <mxPoint x="520" y="200" as="targetPoint" />
          </mxGeometry>
        </mxCell>
        <mxCell id="wrAC1V8LG0lOM_PLB3FL-91" value="" style="edgeStyle=entityRelationEdgeStyle;fontSize=12;html=1;endArrow=ERmany;startArrow=ERmany;rounded=0;exitX=1;exitY=0.75;exitDx=0;exitDy=0;entryX=0;entryY=0.5;entryDx=0;entryDy=0;" edge="1" parent="1" source="wrAC1V8LG0lOM_PLB3FL-1" target="wrAC1V8LG0lOM_PLB3FL-92">
          <mxGeometry width="100" height="100" relative="1" as="geometry">
            <mxPoint x="660" y="330" as="sourcePoint" />
            <mxPoint x="460" y="390" as="targetPoint" />
          </mxGeometry>
        </mxCell>
        <mxCell id="wrAC1V8LG0lOM_PLB3FL-92" value="Có" style="shape=rhombus;perimeter=rhombusPerimeter;whiteSpace=wrap;html=1;align=center;" vertex="1" parent="1">
          <mxGeometry x="490" y="390" width="70" height="40" as="geometry" />
        </mxCell>
        <mxCell id="wrAC1V8LG0lOM_PLB3FL-93" value="" style="edgeStyle=entityRelationEdgeStyle;fontSize=12;html=1;endArrow=ERmany;startArrow=ERmany;rounded=0;exitX=1;exitY=0.5;exitDx=0;exitDy=0;entryX=0;entryY=0.5;entryDx=0;entryDy=0;" edge="1" parent="1" source="wrAC1V8LG0lOM_PLB3FL-92" target="wrAC1V8LG0lOM_PLB3FL-56">
          <mxGeometry width="100" height="100" relative="1" as="geometry">
            <mxPoint x="420" y="275" as="sourcePoint" />
            <mxPoint x="500" y="420" as="targetPoint" />
          </mxGeometry>
        </mxCell>
      </root>
    </mxGraphModel>
  </diagram>
</mxfile>
